<svg preserveAspectRatio="none" overflow="visible" style="display: block;" width="19.8947" height="19.8947" viewBox="0 0 19.8947 19.8947" fill="none" xmlns="http://www.w3.org/2000/svg">
<g id="person">
<mask id="mask0_0_5" style="mask-type:alpha" maskUnits="userSpaceOnUse" x="0" y="0" width="20" height="20">
<rect id="Bounding box" width="19.8947" height="19.8947" fill="#D9D9D9"/>
</mask>
<g mask="url(#mask0_0_5)">
<path id="person_2" d="M9.94675 9.94727C9.03491 9.94727 8.25432 9.6226 7.60498 8.97325C6.95563 8.32391 6.63096 7.54332 6.63096 6.63148C6.63096 5.71963 6.95563 4.93904 7.60498 4.2897C8.25432 3.64036 9.03491 3.31569 9.94675 3.31569C10.8586 3.31569 11.6392 3.64036 12.2885 4.2897C12.9379 4.93904 13.2625 5.71963 13.2625 6.63148C13.2625 7.54332 12.9379 8.32391 12.2885 8.97325C11.6392 9.6226 10.8586 9.94727 9.94675 9.94727ZM3.31517 16.5788V14.2578C3.31517 13.7881 3.43606 13.3563 3.67784 12.9626C3.91961 12.5688 4.24083 12.2683 4.64149 12.0611C5.49807 11.6328 6.36846 11.3116 7.25267 11.0974C8.13688 10.8833 9.03491 10.7762 9.94675 10.7762C10.8586 10.7762 11.7566 10.8833 12.6408 11.0974C13.525 11.3116 14.3954 11.6328 15.252 12.0611C15.6527 12.2683 15.9739 12.5688 16.2157 12.9626C16.4574 13.3563 16.5783 13.7881 16.5783 14.2578V16.5788H3.31517Z" fill="#F8F8F8"/>
</g>
</g>
</svg>
